Shadow Dancer 2012 VODRiP XViD 1MPERiUM


www.imdb.com/title/tt1770734/


Sources: Elvis - Thx


Plot: Set in 1990s Belfast, an active member of the IRA becomes an informant for 
MI5 in order to protect her son's welfare.


Format                                   : AVI
Format/Info                              : Audio Video Interleave
File size                                : 870 MiB
Duration                                 : 1h 37mn
Overall bit rate                         : 1 246 Kbps
Writing application                      : Lavf54.0.100

Video
ID                                       : 0
Format                                   : MPEG-4 Visual
Format profile                           : Simple@L1
Format settings, BVOP                    : No
Format settings, QPel                    : No
Format settings, GMC                     : No warppoints
Format settings, Matrix                  : Default (H.263)
Codec ID                                 : XVID
Codec ID/Hint                            : XviD
Duration                                 : 1h 37mn
Bit rate                                 : 1 106 Kbps
Width                                    : 720 pixels
Height                                   : 304 pixels
Display aspect ratio                     : 2.35:1
Frame rate                               : 25.000 fps
Color space                              : YUV
Chroma subsampling                       : 4:2:0
Bit depth                                : 8 bits
Scan type                                : Progressive
Compression mode                         : Lossy
Bits/(Pixel*Frame)                       : 0.202
Stream size                              : 772 MiB (89%)
Writing library                          : Lavc54.1.100

Audio
ID                                       : 1
Format                                   : MPEG Audio
Format version                           : Version 1
Format profile                           : Layer 3
Codec ID                                 : 55
Codec ID/Hint                            : MP3
Duration                                 : 1h 37mn
Bit rate mode                            : Constant
Bit rate                                 : 128 Kbps
Channel(s)                               : 2 channels
Sampling rate                            : 44.1 KHz
Compression mode                         : Lossy
Stream size                              : 89.4 MiB (10%)
Alignment                                : Aligned on interleaves
Interleave, duration                     : 26 ms (0.65 video frame)


Poster:

 
http://imgon.net/di-OY6K.jpg


Screesnhots:

 
http://imgon.net/di-ESTX.jpg


SEED AND ENJOY!